<?xml version="1.0" encoding="UTF-8"?>
<svg id="Layer_2" data-name="Layer 2" xmlns="http://www.w3.org/2000/svg" xmlns:xlink="http://www.w3.org/1999/xlink" viewBox="0 0 376.69 387.49">
  <defs>
    <style>
      .cls-1 {
        fill: url(#linear-gradient);
      }

      .cls-1, .cls-2, .cls-3, .cls-4, .cls-5 {
        stroke-width: 0px;
      }

      .cls-2 {
        fill: url(#linear-gradient-4);
      }

      .cls-3 {
        fill: url(#linear-gradient-2);
      }

      .cls-4 {
        fill: url(#linear-gradient-3);
      }

      .cls-5 {
        fill: #02231c;
      }
    </style>
    <linearGradient id="linear-gradient" x1="-29.9" y1="224.62" x2="79.17" y2="69.7" gradientUnits="userSpaceOnUse">
      <stop offset="0" stop-color="#00ae58"/>
      <stop offset="1" stop-color="#00e588"/>
    </linearGradient>
    <linearGradient id="linear-gradient-2" x1="85.36" y1="305.77" x2="194.43" y2="150.85" xlink:href="#linear-gradient"/>
    <linearGradient id="linear-gradient-3" x1="74.18" y1="297.9" x2="183.25" y2="142.98" xlink:href="#linear-gradient"/>
    <linearGradient id="linear-gradient-4" x1="216.58" y1="398.16" x2="325.65" y2="243.24" xlink:href="#linear-gradient"/>
  </defs>
  <g id="Layer_1-2" data-name="Layer 1">
    <g>
      <g>
        <path class="cls-1" d="m129.47,0v74.4H53.51V0H10.44v182.74h43.08v-73.35h75.96v15.8c11.96-10.28,26.64-17.48,42.81-20.39V0h-42.81Z"/>
        <path class="cls-3" d="m331.79,0l-47.51,103.11h-2.35L234.68,0h-44.64l55.1,115.31,2.26,4.72,4.52,9.48c7.06,7.01,12.97,15.16,17.44,24.16h33.68L376.69,0h-44.9Z"/>
        <path class="cls-4" d="m69.44,344.67l-1.04-1.83,53.44-86.44.55-.9c-11.25-12-19.25-27.07-22.62-43.83-.07-.39-.16-.78-.22-1.19-.13-.68-.25-1.36-.35-2.04-.51-2.93-.84-5.9-1.03-8.91H3.13v37.32h79.61l1.04,2.09L0,377.04v5.23h155.07v-37.6h-85.63Z"/>
        <path class="cls-2" d="m299.69,199.53v102.59h-2.35l-40.74-38.96-1.77-1.68-3.29-3.15c-16.31,15.94-38.61,25.77-63.19,25.77-3.22,0-6.41-.17-9.54-.49v98.66h42.81v-102.6h2.09l.16.16,2.32,2.22,110.3,105.44h6.01v-187.95h-42.81Z"/>
      </g>
      <g>
        <rect class="cls-5" x="136.41" y="162.68" width="17.56" height="49.41"/>
        <rect class="cls-5" x="201.15" y="162.68" width="17.56" height="49.41"/>
        <path class="cls-5" d="m240.65,175.27v20.89h21.89c-1.26,39.42-33.71,71.13-73.43,71.18-40.51-.05-73.47-33.03-73.47-73.57s32.96-73.51,73.48-73.55c25.74.04,48.43,13.36,61.53,33.46h22.51c-7.32-15.58-18.75-28.84-32.93-38.36-15.04-10.1-33.15-16-52.63-16-6.94,0-13.71.75-20.23,2.17-16.22,3.54-30.89,11.25-42.81,21.96-19.28,17.29-31.41,42.39-31.41,70.32,0,5,.39,9.9,1.13,14.68.1.68.22,1.36.35,2.04.06.41.14.8.22,1.19,3.26,16.96,11.06,32.31,22.07,44.73,14.44,16.28,34.41,27.54,56.98,30.83,4.48.65,9.06.99,13.71.99,10.16,0,19.94-1.59,29.1-4.58,1.54-.48,3.06-1.01,4.57-1.59,11.35-4.33,21.64-10.78,30.41-18.88,18.13-16.74,29.7-40.52,30.35-67h15.7v-20.89h-57.08Z"/>
        <path class="cls-5" d="m209.19,234.53h-56.98c28.49,32.08,56.98,0,56.98,0Z"/>
      </g>
    </g>
  </g>
</svg>