<svg xmlns="http://www.w3.org/2000/svg" viewBox="0 0 190 190" role="img" aria-label="George Heavenson">
  <style>
    .smile { fill: #02231c; }
    @media (prefers-color-scheme: dark) {
      .smile { fill: #ffffff; }
    }
  </style>
  <g transform="translate(0 8.5)">
    <path fill="#00e281" d="m171.75,72.08h-16.96c.98,4.64,1.5,9.46,1.5,14.4,0,.76-.02,1.51-.04,2.26-1.2,37.45-32.04,67.55-69.78,67.55S16.66,124.97,16.66,86.48,47.98,16.66,86.47,16.66c27.35,0,51.07,15.8,62.52,38.76h18.19C154.69,23.03,123.22,0,86.47,0,38.79,0,0,38.79,0,86.48s38.79,86.48,86.47,86.48,85.25-37.57,86.45-84.22c.02-.75.03-1.51.03-2.26,0-4.9-.41-9.72-1.2-14.4Z"/>
    <rect fill="#00e281" x="36.38" y="54.14" width="16.66" height="52.55"/>
    <rect fill="#00e281" x="97.82" y="54.14" width="16.66" height="52.55"/>
    <rect fill="#00e281" x="40.6" y="72.08" width="148.89" height="16.66"/>
    <path class="smile" d="m51.37,125.16h54.08s-27.04,30.44-54.08,0Z"/>
  </g>
</svg>
